<svg xmlns="http://www.w3.org/2000/svg" viewBox="257 333 509 147" width="509" height="147" color="#000000">
  <g id="logo-group">
    <g id="logo-center" transform="translate(217.0221340000001 0)">
      <g id="title" style="font-style:normal;font-weight:normal;font-size:72px;line-height:1;font-family:BrandmarkSerif6;font-variant-ligatures:normal;text-align:center;text-anchor:middle" transform="translate(0 0)">
        <path id="path809744" style="font-style:normal;font-weight:normal;font-size:72px;line-height:1;font-family:BrandmarkSerif6;font-variant-ligatures:normal;text-align:center;text-anchor:middle" d="m 359.79987,-35.64 c -4.608,0 -8.496,3.816 -11.01599,7.992 v -7.416 h -11.44801 c -0.216,0 -0.36,0.216 -0.36,0.36 0,0.216 0.144,0.432 0.36,0.432 2.088,0 3.81601,1.656 3.81601,3.744 v 41.472 c 0,2.088 -1.72801,3.744 -3.81601,3.744 -0.216,0 -0.36,0.144 -0.36,0.36 0,0.216 0.144,0.432 0.36,0.432 h 15.264 c 0.216,0 0.36,-0.216 0.36,-0.432 0,-0.216 -0.144,-0.36 -0.36,-0.36 -2.088,0 -3.81599,-1.656 -3.81599,-3.744 v -13.32 c 2.23199,1.8 5.25599,2.952 9.14399,2.952 8.568,0 16.48801,-8.136 16.48801,-18.072 0,-10.008 -6.048,-18.144 -14.61601,-18.144 z m -11.01599,31.104 v -21.096 c 2.08799,-3.096 5.03999,-6.984 8.784,-6.984 6.048,0 9.64799,6.48 9.64799,16.056 0,9.864 -4.104,15.408 -10.152,15.408 -3.528,0 -6.264,-1.296 -8.27999,-3.384 z" stroke-width="0" stroke-linejoin="miter" stroke-miterlimit="2" fill="#000000" stroke="#000000" transform="translate(0 306.5536) translate(50 55.472) scale(1.4) translate(-336.97587 35.64)"></path>
        <path id="path809746" d="m 400.08837,-35.64 c -10.368,0 -18.792,8.136 -18.792,18.144 0,9.936 8.424,18.072 18.792,18.072 10.368,0 18.79201,-8.136 18.79201,-18.072 0,-10.008 -8.42401,-18.144 -18.79201,-18.144 z m -11.08799,18.144 c 0,-9.072 4.96799,-16.416 11.08799,-16.416 6.12,0 11.088,7.344 11.088,16.416 0,9 -4.968,16.344 -11.088,16.344 -6.12,0 -11.08799,-7.344 -11.08799,-16.344 z" stroke-width="0" stroke-linejoin="miter" stroke-miterlimit="2" fill="#000000" stroke="#000000" transform="translate(0 306.5536) translate(112.0487 55.472) scale(1.4) translate(-381.29637 35.64)"></path>
        <path id="path809748" d="m 437.69263,0.648 c 8.35199,0 15.47999,-3.456 15.47999,-10.008 0,-11.592 -20.736,-12.24 -20.736,-18.864 0,-2.736 2.23201,-5.688 6.55201,-5.688 3.24,0 7.992,3.384 7.92,9.648 0,0 4.67999,-0.936 4.67999,-4.176 0,-1.296 -0.57599,-2.592 -1.79999,-3.744 -1.87201,-2.16 -2.808,-5.04 -2.808,-7.92 0,-5.184 3.95999,-11.664 11.664,-11.664 4.464,0 10.87199,1.656 10.87199,6.912 0,5.688 -5.76,9.792 -11.664,9.792 v 1.44 h 5.47201 v 21.96 c 0,6.768 5.47199,12.24 12.23999,12.24 2.66401,0 5.184,-0.864 7.20001,-2.376 l -0.64801,-1.008 c -1.224,1.08 -2.736,1.656 -4.392,1.656 -3.744,0 -6.76799,-3.024 -6.76799,-6.696 v -25.776 h 7.2 v -1.44 h -7.2 v -9.792 c 0,-9.432 -10.36801,-10.512 -15.336,-10.512 -5.976,0 -16.92001,3.456 -16.92001,13.464 0,2.232 0.72,4.464 1.94401,6.264 h -0.93601 c -7.56,0 -13.392,3.888 -13.392,9.504 0,10.944 19.656,11.52 19.656,19.656 0,2.52 -1.872,5.328 -7.272,5.328 -5.39999,0 -8.56799,-4.68 -8.35199,-10.944 0,0 -4.608,2.376 -4.608,5.76 0,3.312 3.59999,6.984 11.952,6.984 z" stroke-width="0" fill="#000000" transform="translate(0 306.5536) translate(174.270664 27.8528) scale(1.4) translate(-425.74063 55.368)"></path>
        <path id="path809750" d="m 509.42487,-35.64 c -4.608,0 -8.496,3.816 -11.01599,7.992 v -7.416 h -11.44801 c -0.216,0 -0.36,0.216 -0.36,0.36 0,0.216 0.144,0.432 0.36,0.432 2.088,0 3.81601,1.656 3.81601,3.744 v 41.472 c 0,2.088 -1.72801,3.744 -3.81601,3.744 -0.216,0 -0.36,0.144 -0.36,0.36 0,0.216 0.144,0.432 0.36,0.432 h 15.264 c 0.216,0 0.36,-0.216 0.36,-0.432 0,-0.216 -0.144,-0.36 -0.36,-0.36 -2.088,0 -3.81599,-1.656 -3.81599,-3.744 v -13.32 c 2.23199,1.8 5.25599,2.952 9.14399,2.952 8.568,0 16.48801,-8.136 16.48801,-18.072 0,-10.008 -6.048,-18.144 -14.61601,-18.144 z m -11.01599,31.104 v -21.096 c 2.08799,-3.096 5.03999,-6.984 8.784,-6.984 6.04799,0 9.64799,6.48 9.64799,16.056 0,9.864 -4.10399,15.408 -10.152,15.408 -3.528,0 -6.264,-1.296 -8.27999,-3.384 z" stroke-width="0" fill="#000000" transform="translate(0 306.5536) translate(259.47499999999997 55.472) scale(1.4) translate(-486.60087 35.64)"></path>
        <path id="path809752" d="m 549.06538,0.576 c 10.65599,0 18.144,-8.28 23.904,-16.488 l 2.95199,-4.32 0.43201,-0.72 c 1.15199,-1.656 2.15999,-3.312 3.168,-4.68 1.94399,-3.168 6.83999,-8.28 10.36799,-8.28 2.88,0 6.984,2.664 6.984,10.08 v 19.296 c 0,2.088 -1.656,3.744 -3.744,3.744 -0.216,0 -0.36,0.216 -0.36,0.432 0,0.216 0.144,0.36 0.36,0.36 h 15.192 c 0.216,0 0.432,-0.144 0.432,-0.36 0,-0.216 -0.216,-0.432 -0.432,-0.432 -2.08799,0 -3.744,-1.656 -3.744,-3.744 v -19.296 c 0,0 0,-11.808 -11.88,-11.808 -6.62399,0 -11.16,5.112 -13.17599,7.92 v -7.344 h -11.448 c -0.216,0 -0.36,0.144 -0.36,0.36 0,0.216 0.144,0.432 0.36,0.432 2.088,0 3.81599,1.656 3.81599,3.744 v 13.536 c -5.544,7.344 -11.88,14.04 -19.29599,14.112 -6.91201,-0.072 -13.75201,-4.032 -13.75201,-16.416 0,-1.008 0.072,-2.016 0.144,-2.88 h 23.11201 c 0,-5.76 -0.792,-13.464 -13.32001,-13.464 -10.08,0 -17.63999,7.272 -17.63999,18.792 0,11.592 7.84799,17.424 17.928,17.424 z m -9.79201,-24.192 c 1.36801,-6.912 6.048,-10.296 9.504,-10.296 3.96001,0 5.616,2.952 5.76,10.296 z m 28.44001,23.256 c 0,0.216 0.144,0.36 0.36,0.36 h 15.26399 c 0.216,0 0.36,-0.144 0.36,-0.36 0,-0.216 -0.144,-0.432 -0.36,-0.432 -2.088,0 -3.81599,-1.656 -3.81599,-3.744 v -12.456 c 0,-1.44 -1.94401,-2.088 -2.736,-0.792 -1.51201,2.232 -3.096,4.752 -4.89601,7.128 v 6.12 c 0,2.088 -1.72799,3.744 -3.81599,3.744 -0.216,0 -0.36,0.216 -0.36,0.432 z" stroke-width="0" fill="#000000" transform="translate(0 306.5536) translate(321.82611399999996 55.472) scale(1.4) translate(-531.13738 35.64)"></path>
        <path id="path809754" d="m 634.7015,-2.88 c -5.688,0 -12.96,-3.96 -12.96,-16.416 0,-9.792 5.832,-14.616 9.936,-14.616 3.96,0 9.072,4.32 5.76,11.592 0,0 6.696,-0.072 6.696,-6.624 0,-6.552 -12.456,-6.696 -12.456,-6.696 -10.08,0 -17.64,7.272 -17.64,18.792 0,11.592 6.912,17.424 15.696,17.424 8.784,0 13.752,-5.976 15.48,-9 l -1.08,-0.936 c 0,0 -3.816,6.48 -9.432,6.48 z" stroke-width="0" fill="#000000" transform="translate(0 306.5536) translate(437.88628199999994 55.472) scale(1.4) translate(-614.0375 35.64)"></path>
        <path id="path809756" d="m 658.28712,-40.104 c 2.73601,0 4.96801,-2.232 4.96801,-4.968 0,-2.736 -2.232,-4.896 -4.96801,-4.896 -2.736,0 -4.968,2.16 -4.968,4.896 0,2.736 2.232,4.968 4.968,4.968 z m -7.992,5.4 c 0,0.216 0.144,0.432 0.36,0.432 2.088,0 3.81601,1.656 3.81601,3.744 v 26.712 c -0.36,1.728 -1.87201,3.096 -3.74401,3.096 -0.216,0 -0.36,0.144 -0.36,0.36 0,0.216 0.144,0.36 0.36,0.36 h 15.192 c 0.21601,0 0.36001,-0.144 0.36001,-0.36 0,-0.216 -0.144,-0.36 -0.36001,-0.36 -2.08799,0 -3.816,-1.728 -3.816,-3.816 v -30.528 h -11.448 c -0.216,0 -0.36,0.216 -0.36,0.36 z" stroke-width="0" fill="#000000" transform="translate(0 306.5536) translate(488.64694999999983 35.4128) scale(1.4) translate(-650.29512 49.968)"></path>
        <path id="path809758" d="m 671.03225,-49.032 c 0,0.216 0.144,0.36 0.36,0.36 2.088,0 3.744,1.728 3.744,3.816 v 40.824 c -0.216,1.872 -1.8,3.312 -3.744,3.312 -0.216,0 -0.36,0.144 -0.36,0.36 0,0.216 0.144,0.36 0.36,0.36 h 15.192 c 0.216,0 0.36,-0.144 0.36,-0.36 0,-0.216 -0.144,-0.36 -0.36,-0.36 -1.944,0 -3.456,-1.44 -3.744,-3.24 v -45.432 h -11.448 c -0.216,0 -0.36,0.144 -0.36,0.36 z" stroke-width="0" fill="#000000" transform="translate(0 306.5536) translate(517.6789319999998 36.2192) scale(1.4) translate(-671.03225 49.392)"></path>
      </g>
    </g>
  </g>
</svg>